<svg viewBox="0 0 24 24" xmlns="http://www.w3.org/2000/svg"><rect height="9" rx="2" width="9" x="1" y="1" fill="#47a6e3" class="fill-47a6e3"></rect><rect height="9" rx="2" width="9" x="14" y="1" fill="#f5de5d" class="fill-f55fa6"></rect><rect height="9" rx="2" width="9" x="1" y="14" fill="#dbae33" class="fill-da3380"></rect><rect height="9" rx="2" width="9" x="14" y="14" fill="#0e7cc9" class="fill-0e7cc9"></rect><path d="M10 16a2.006 2.006 0 0 1-2 2H3a2 2 0 0 1 0-4h5a2.006 2.006 0 0 1 2 2Z" fill="#f5de5d" class="fill-f55fa6"></path><path d="M23 16a2.006 2.006 0 0 1-2 2h-5a2 2 0 0 1 0-4h5a2.006 2.006 0 0 1 2 2Z" fill="#47a6e3" class="fill-47a6e3"></path><g data-name="Layer 4"><path d="M8 0H3a3 3 0 0 0-3 3v5a3 3 0 0 0 3 3h5a3 3 0 0 0 3-3V3a3 3 0 0 0-3-3Zm1 8a1 1 0 0 1-1 1H3a1 1 0 0 1-1-1V3a1 1 0 0 1 1-1h5a1 1 0 0 1 1 1ZM21 0h-5a3 3 0 0 0-3 3v5a3 3 0 0 0 3 3h5a3 3 0 0 0 3-3V3a3 3 0 0 0-3-3Zm1 8a1 1 0 0 1-1 1h-5a1 1 0 0 1-1-1V3a1 1 0 0 1 1-1h5a1 1 0 0 1 1 1ZM8 13H3a3 3 0 0 0-3 3v5a3 3 0 0 0 3 3h5a3 3 0 0 0 3-3v-5a3 3 0 0 0-3-3Zm1 8a1 1 0 0 1-1 1H3a1 1 0 0 1-1-1v-5a1 1 0 0 1 1-1h5a1 1 0 0 1 1 1ZM21 13h-5a3 3 0 0 0-3 3v5a3 3 0 0 0 3 3h5a3 3 0 0 0 3-3v-5a3 3 0 0 0-3-3Zm1 8a1 1 0 0 1-1 1h-5a1 1 0 0 1-1-1v-5a1 1 0 0 1 1-1h5a1 1 0 0 1 1 1Z" fill="#2c2c7a" class="fill-6c2e7c"></path></g></svg>