<svg viewBox="0 0 64 64" xmlns="http://www.w3.org/2000/svg"><path d="m32 30.8s-1.7-10.7-1.7-11.5.8-1.3 1.7-1.3 1.7.6 1.7 1.4-1.7 11.4-1.7 11.4m0 2.5s1.7 10.7 1.7 11.5c0 .7-.8 1.4-1.7 1.4s-1.7-.6-1.7-1.4 1.7-11.5 1.7-11.5m-1.3-1.3s-10.7 1.7-11.5 1.7c-.7 0-1.4-.8-1.4-1.7s.6-1.7 1.4-1.7 11.5 1.7 11.5 1.7m2.6 0s10.7-1.7 11.5-1.7c.7 0 1.4.8 1.4 1.7s-.6 1.7-1.4 1.7-11.5-1.7-11.5-1.7m-2.2-.9s-8.8-6.4-9.3-6.9-.4-1.5.3-2.2 1.6-.8 2.2-.3c.4.7 6.8 9.4 6.8 9.4m1.8 1.8s8.8 6.4 9.3 6.9.4 1.5-.3 2.2-1.6.8-2.2.3c-.4-.6-6.8-9.4-6.8-9.4m-1.8 0s-6.4 8.8-6.9 9.3-1.5.4-2.2-.3-.8-1.6-.3-2.2c.6-.4 9.4-6.8 9.4-6.8m1.8-1.8s6.4-8.8 6.9-9.3 1.5-.4 2.2.3.8 1.6.3 2.2c-.6.5-9.4 6.8-9.4 6.8" fill="#6adbc6"/><path d="m31.2 29.9s-8.8-17.3-9.3-18.5-.2-2.5.7-2.9 2 .4 2.5 1.6 6.1 19.8 6.1 19.8m1.6 4.2s8.8 17.3 9.3 18.5.2 2.5-.7 2.9-2-.4-2.5-1.6-6.1-19.8-6.1-19.8m-2.9-1.2s-17.3 8.8-18.5 9.3-2.5.2-2.9-.7.4-2 1.6-2.5c1.3-.5 19.8-6.1 19.8-6.1m4.2-1.7s17.3-8.8 18.5-9.3 2.5-.2 2.9.7-.4 2-1.6 2.5zm-4.2-.1s-18.4-6-19.7-6.5-1.9-1.6-1.5-2.5 1.7-1.1 2.9-.6 18.3 9.6 18.3 9.6m4.2 1.8s18.4 6 19.7 6.5c1.2.5 1.9 1.7 1.6 2.5-.4.9-1.7 1.1-2.9.6-1.3-.5-18.4-9.6-18.4-9.6m-3 1.2s-6 18.4-6.5 19.7c-.5 1.2-1.7 1.9-2.5 1.6-.9-.4-1.1-1.7-.6-2.9.5-1.3 9.6-18.4 9.6-18.4m1.8-4.1s6-18.4 6.5-19.7 1.6-2 2.5-1.6 1.1 1.7.6 2.9c-.5 1.3-9.6 18.4-9.6 18.4" fill="#ffce31"/><g fill="#42ade2"><path d="m32 47.1s1.7 12.5 1.7 13.4-.8 1.6-1.7 1.6-1.7-.7-1.7-1.6 1.7-13.4 1.7-13.4m0-31.1s-1.7-11.7-1.7-12.5.7-1.5 1.7-1.5 1.7.7 1.7 1.5-1.7 12.5-1.7 12.5zm10.7 26.7s10 7.6 10.7 8.2c.6.6.6 1.7-.1 2.3s-1.7.7-2.3.1c-.7-.6-8.3-10.6-8.3-10.6m-22-22s-9.5-7-10-7.6c-.6-.6-.5-1.6.2-2.3s1.7-.7 2.3-.2c.4.6 7.5 10.1 7.5 10.1m22 .6s7.6-10 8.2-10.7c.6-.6 1.7-.6 2.3.1.7.7.7 1.7.1 2.3-.6.7-10.6 8.3-10.6 8.3m-22 22s-7 9.5-7.6 10c-.6.6-1.6.5-2.3-.2s-.8-1.6-.2-2.1c.6-.6 10.1-7.7 10.1-7.7m26.4-11.3s12.5-1.7 13.4-1.7 1.5.7 1.5 1.7c0 .9-.7 1.7-1.6 1.7-.8 0-13.3-1.7-13.3-1.7m-31.1 0s-11.7 1.7-12.5 1.7-1.5-.7-1.5-1.7.7-1.7 1.5-1.7 12.5 1.7 12.5 1.7z"/><circle cx="20.7" cy="5.1" r="1.8"/><circle cx="43.5" cy="5.1" r="1.8"/><circle cx="20.2" cy="59" r="1.8"/><circle cx="43" cy="59" r="1.8"/><circle cx="4.9" cy="43.2" r="1.8"/><circle cx="4.9" cy="20.4" r="1.8"/><circle cx="58.8" cy="43.7" r="1.8"/><circle cx="58.8" cy="20.9" r="1.8"/></g></svg>