<svg version="1.0" id="Layer_1" xmlns="http://www.w3.org/2000/svg" xmlns:xlink="http://www.w3.org/1999/xlink" viewBox="0 0 64 64" enable-background="new 0 0 64 64" xml:space="preserve" fill="#000000"><g id="SVGRepo_bgCarrier" stroke-width="0"></g><g id="SVGRepo_tracerCarrier" stroke-linecap="round" stroke-linejoin="round"></g><g id="SVGRepo_iconCarrier"> <g> <g> <path fill="#F9EBB2" d="M2,35v23c0,2.209,1.791,4,4,4s4-1.791,4-4V33H4C2.896,33,2,33.896,2,35z"></path> <path fill="#F9EBB2" d="M60,2H14c-1.104,0-2,0.896-2,2v54c0,1.539-0.584,2.938-1.537,4H58c2.209,0,4-1.791,4-4V4 C62,2.896,61.104,2,60,2z"></path> </g> <g> <path fill="#394240" d="M60,0H14c-2.211,0-4,1.789-4,4v27H4c-2.211,0-4,1.789-4,4v23c0,3.313,2.687,6,6,6h52c3.313,0,6-2.687,6-6 V4C64,1.789,62.211,0,60,0z M10,58c0,2.209-1.791,4-4,4s-4-1.791-4-4V35c0-1.104,0.896-2,2-2h6V58z M62,58c0,2.209-1.791,4-4,4 H10.463C11.416,60.938,12,59.539,12,58V4c0-1.104,0.896-2,2-2h46c1.104,0,2,0.896,2,2V58z"></path> <path fill="#394240" d="M53,25H21c-0.553,0-1,0.447-1,1s0.447,1,1,1h32c0.553,0,1-0.447,1-1S53.553,25,53,25z"></path> <path fill="#394240" d="M53,19H21c-0.553,0-1,0.447-1,1s0.447,1,1,1h32c0.553,0,1-0.447,1-1S53.553,19,53,19z"></path> <path fill="#394240" d="M53,37H21c-0.553,0-1,0.447-1,1s0.447,1,1,1h32c0.553,0,1-0.447,1-1S53.553,37,53,37z"></path> <path fill="#394240" d="M53,43H21c-0.553,0-1,0.447-1,1s0.447,1,1,1h32c0.553,0,1-0.447,1-1S53.553,43,53,43z"></path> <path fill="#394240" d="M53,49H21c-0.553,0-1,0.447-1,1s0.447,1,1,1h32c0.553,0,1-0.447,1-1S53.553,49,53,49z"></path> <path fill="#394240" d="M53,31H21c-0.553,0-1,0.447-1,1s0.447,1,1,1h32c0.553,0,1-0.447,1-1S53.553,31,53,31z"></path> <path fill="#394240" d="M21,15h15c0.553,0,1-0.447,1-1s-0.447-1-1-1H21c-0.553,0-1,0.447-1,1S20.447,15,21,15z"></path> </g> <path opacity="0.15" fill="#231F20" d="M2,35v23c0,2.209,1.791,4,4,4s4-1.791,4-4V33H4C2.896,33,2,33.896,2,35z"></path> </g> </g></svg>