<svg viewBox="0 0 64 64" xmlns="http://www.w3.org/2000/svg"><g data-name="Day 9"><path d="M51.21 23.86 47 21c2.68-2.69 4-10 4-10l.17-.34a2 2 0 0 1 1.47 1.44 17.88 17.88 0 0 1-1.3 11.77ZM41.44 18.29a4.53 4.53 0 0 1 2.77 7.05 3.21 3.21 0 0 1-.55.56A2.35 2.35 0 0 1 39.9 24a7.22 7.22 0 0 0-.71-2.94 2 2 0 0 1 2.2-2.8Z" fill="#ebd79f" class="fill-e6ddc6"></path><path d="M43 30a2.5 2.5 0 1 1-3 2.46 2.26 2.26 0 0 1 0-.26 38.9 38.9 0 0 0 3-2.2Z" fill="#000763" class="fill-001c63"></path><path d="M42.5 30a2.22 2.22 0 0 1 .5 0c-.24.2-1.4 1.13-2.94 2.2A2.5 2.5 0 0 1 42.5 30Z" fill="#000763" class="fill-001c63"></path><path d="M40 41s-.71-5-5-5h-3c2.15 0 5.56-2.06 8-3.76a2.26 2.26 0 0 0 0 .26 2.5 2.5 0 1 0 3-2.5s5.63-5.37 10 7a.92.92 0 0 0-.38.42C52.1 38.56 50.88 40 48 40c-3.06 0-4.29-1.7-8 1Z" fill="#dbceab" class="fill-e8e0cb"></path><path d="M22.64 18.28a2 2 0 0 1 2.2 2.79 7.29 7.29 0 0 0-.72 3 2.34 2.34 0 0 1-4 1.65 4.55 4.55 0 0 1 2.52-7.38Z" fill="#ebd79f" class="fill-e6ddc6"></path><path d="M21.5 35a2.5 2.5 0 0 0 2.5-2.5 2.26 2.26 0 0 0 0-.26c2.45 1.7 5.86 3.76 8 3.76h-3c-4.29 0-5 5-5 5-3.71-2.7-4.94-1-8-1-2.88 0-4.1-1.44-4.62-2.59A1 1 0 0 0 11 37c4.38-12.35 10-7 10-7h.05a2.5 2.5 0 0 0 .45 5Z" fill="#dbceab" class="fill-e8e0cb"></path><path d="M24 32.24c-1.54-1.07-2.7-2-2.94-2.2a2.22 2.22 0 0 1 .45 0 2.5 2.5 0 0 1 2.49 2.2Z" fill="#000763" class="fill-001c63"></path><path d="M21.05 30c.24.2 1.4 1.13 2.94 2.2a2.26 2.26 0 0 1 0 .26A2.5 2.5 0 1 1 21.05 30Z" fill="#000763" class="fill-001c63"></path><path d="M11.5 12.1a2 2 0 0 1 1.35-1.41L13 11s1.32 7.31 4 10l-4.21 2.86A17.81 17.81 0 0 1 11.5 12.1Z" fill="#ebd79f" class="fill-e6ddc6"></path><path d="M55.91 39.09a18.1 18.1 0 0 0-1.63-1.92A1 1 0 0 0 53 37a.92.92 0 0 0-.38.42C52.1 38.56 50.88 40 48 40c-3.06 0-4.29-1.7-8 1 0 0-.71-5-5-5h-6c-4.29 0-5 5-5 5-3.71-2.7-4.94-1-8-1-2.88 0-4.1-1.44-4.62-2.59A1 1 0 0 0 11 37a1.05 1.05 0 0 0-1.29.18A30.21 30.21 0 0 0 5.5 43c1 .94 5.49 4.39 18.25 5.48l1 2.39a5 5 0 0 0 4.4 3.13h5.7a5 5 0 0 0 4.44-3.09l1-2.33C52.69 47.47 57.43 44 58.49 43a34.17 34.17 0 0 0-2.58-3.91Zm-19.3 1.8-1 1.44a4.51 4.51 0 0 1-7.2.05l-1-1.52c-.84-1.1.23-.86 1.61-.86h6.56c1.36 0 1.87-.21 1.03.88Z" fill="#c2c2b7" class="fill-d0d1d4"></path><path d="M58.49 43c-1.06.93-5.8 4.43-18.23 5.54C47.09 47.79 56.17 43 57 40c1 1.27.76 1.74 1.49 3ZM6.26 43c1.06.93 5.8 4.43 18.23 5.54C17.66 47.79 8.58 43 7.75 40c-.97 1.27-.75 1.74-1.49 3Z" fill="#adadb0" class="fill-adadb0"></path><path d="M51.29 24v-.11h-.13L47 21c2.68-2.69 4-10 4-10l.17-.34a1.93 1.93 0 0 0-1.89.52l-5.13 5.13c-3.79-3-8-4.89-12.15-4.89s-8.3 1.85-12.07 4.83l-5.07-5.07a2 2 0 0 0-2-.49L13 11s1.32 7.31 4 10l-4.21 2.86c-4.09 5.72-6.94 12.62-7.52 19 0 0 .07.08.23.23a30.21 30.21 0 0 1 4.22-5.88A1.05 1.05 0 0 1 11 37c4.38-12.35 10-7 10-7a2.22 2.22 0 0 1 .45 0A2.5 2.5 0 0 1 24 32.24c2.45 1.7 5.86 3.76 8 3.76s5.56-2.06 8-3.76A2.5 2.5 0 0 1 42.5 30a2.22 2.22 0 0 1 .5 0s5.63-5.37 10 7a1 1 0 0 1 1.28.18A29.39 29.39 0 0 1 58.49 43a2.91 2.91 0 0 0 .24-.23c-.57-6.25-3.39-13.1-7.44-18.77Zm-26.45-2.93a7.29 7.29 0 0 0-.72 3 2.34 2.34 0 0 1-4 1.65 4.55 4.55 0 0 1 2.52-7.38 2 2 0 0 1 2.2 2.73Zm19.37 4.27a3.21 3.21 0 0 1-.55.56A2.35 2.35 0 0 1 39.9 24a7.22 7.22 0 0 0-.71-2.94 2 2 0 0 1 2.2-2.8 4.53 4.53 0 0 1 2.82 7.08Z" fill="#687991" class="fill-687991"></path><g fill="none" stroke="#000763" stroke-linecap="round" stroke-linejoin="round" stroke-width="2" class="stroke-001c63"><path d="M12.85 10.69a2 2 0 0 1 2 .49l5.07 5.07c3.77-3 7.93-4.83 12.07-4.83s8.36 1.87 12.15 4.89l5.13-5.13a1.93 1.93 0 0 1 1.89-.52M5.5 43l-.23-.23c.58-6.33 3.43-13.23 7.52-19M51.34 23.87l-.05.11c4.05 5.69 6.87 12.54 7.44 18.83a2.92 2.92 0 0 1-.24.23"></path><path d="M58.49 43c-1.06.93-5.8 4.43-18.23 5.54l-1 2.33A5 5 0 0 1 34.85 54h-5.7a5 5 0 0 1-4.44-3.09l-1-2.39C11 47.43 6.5 44 5.5 43a30.21 30.21 0 0 1 4.22-5.88A1.05 1.05 0 0 1 11 37a1 1 0 0 1 .37.43C11.9 38.56 13.12 40 16 40c3.06 0 4.29-1.7 8 1 0 0 .71-5 5-5h6c4.29 0 5 5 5 5 3.71-2.7 4.94-1 8-1 2.88 0 4.1-1.44 4.62-2.59A.92.92 0 0 1 53 37a1 1 0 0 1 1.28.18A29.39 29.39 0 0 1 58.49 43ZM12.85 10.69 13 11s1.32 7.31 4 10l-4.21 2.86A17.81 17.81 0 0 1 11.5 12.1a2 2 0 0 1 1.35-1.41ZM51.34 23.87h-.13L47 21c2.68-2.69 4-10 4-10l.17-.34a2 2 0 0 1 1.47 1.44 17.88 17.88 0 0 1-1.3 11.77Z"></path><path d="M11 37v0c4.38-12.35 10-7 10-7h.05c.24.2 1.4 1.13 2.94 2.2 2.45 1.7 5.86 3.76 8 3.76M53 37h0c-4.37-12.36-10-7-10-7h0c-.24.2-1.4 1.13-2.94 2.2-2.5 1.74-5.91 3.8-8.06 3.8"></path></g><path d="M35.28 38.41a1.67 1.67 0 0 1 1.33 2.68l-1 1.34a4.51 4.51 0 0 1-7.2 0l-1-1.34a1.67 1.67 0 0 1 1.33-2.68Z" fill="#000763" class="fill-001c63"></path></g></svg>