<svg version="1.0" id="Layer_1" xmlns="http://www.w3.org/2000/svg" xmlns:xlink="http://www.w3.org/1999/xlink" viewBox="0 0 64 64" enable-background="new 0 0 64 64" xml:space="preserve" fill="#000000"><g id="SVGRepo_bgCarrier" stroke-width="0"></g><g id="SVGRepo_tracerCarrier" stroke-linecap="round" stroke-linejoin="round"></g><g id="SVGRepo_iconCarrier"> <g> <g> <path fill="#F9EBB2" d="M62,60V14H2v46c0,1.104,0.896,2,2,2h56C61.104,62,62,61.104,62,60z"></path> </g> <path fill="#B4CCB9" d="M2,4v8h60V4c0-1.104-0.896-2-2-2H4C2.896,2,2,2.896,2,4z"></path> <g> <path fill="#394240" d="M60,0H4C1.789,0,0,1.789,0,4v56c0,2.211,1.789,4,4,4h56c2.211,0,4-1.789,4-4V4C64,1.789,62.211,0,60,0z M62,60c0,1.104-0.896,2-2,2H4c-1.104,0-2-0.896-2-2V14h60V60z M62,12H2V4c0-1.104,0.896-2,2-2h56c1.104,0,2,0.896,2,2V12z"></path> <path fill="#394240" d="M7,4C5.343,4,4,5.343,4,7s1.343,3,3,3s3-1.343,3-3S8.657,4,7,4z M7,8C6.447,8,6,7.553,6,7s0.447-1,1-1 s1,0.447,1,1S7.553,8,7,8z"></path> <path fill="#394240" d="M33,4H15c-1.657,0-3,1.343-3,3s1.343,3,3,3h18c1.657,0,3-1.343,3-3S34.657,4,33,4z M33,8H15 c-0.553,0-1-0.447-1-1s0.447-1,1-1h18c0.553,0,1,0.447,1,1S33.553,8,33,8z"></path> <path fill="#394240" d="M11,24h18c0.553,0,1-0.447,1-1s-0.447-1-1-1H11c-0.553,0-1,0.447-1,1S10.447,24,11,24z"></path> <path fill="#394240" d="M11,30h18c0.553,0,1-0.447,1-1s-0.447-1-1-1H11c-0.553,0-1,0.447-1,1S10.447,30,11,30z"></path> <path fill="#394240" d="M11,36h18c0.553,0,1-0.447,1-1s-0.447-1-1-1H11c-0.553,0-1,0.447-1,1S10.447,36,11,36z"></path> <path fill="#394240" d="M11,42h18c0.553,0,1-0.447,1-1s-0.447-1-1-1H11c-0.553,0-1,0.447-1,1S10.447,42,11,42z"></path> <path fill="#394240" d="M11,48h42c0.553,0,1-0.447,1-1s-0.447-1-1-1H11c-0.553,0-1,0.447-1,1S10.447,48,11,48z"></path> <path fill="#394240" d="M11,54h42c0.553,0,1-0.447,1-1s-0.447-1-1-1H11c-0.553,0-1,0.447-1,1S10.447,54,11,54z"></path> <path fill="#394240" d="M35,42h18c0.553,0,1-0.447,1-1V23c0-0.553-0.447-1-1-1H35c-0.553,0-1,0.447-1,1v18 C34,41.553,34.447,42,35,42z M36,24h16v16H36V24z"></path> </g> <rect x="36" y="24" fill="#F76D57" width="16" height="16"></rect> <g> <path fill="#506C7F" d="M33,6H15c-0.553,0-1,0.447-1,1s0.447,1,1,1h18c0.553,0,1-0.447,1-1S33.553,6,33,6z"></path> <circle fill="#506C7F" cx="7" cy="7" r="1"></circle> </g> </g> </g></svg>